<svg width="400" height="400" viewBox="0 0 400 400" fill="none" xmlns="http://www.w3.org/2000/svg">
<rect width="400" height="400" rx="104" fill="url(#paint0_linear_191_2)"/>
<path d="M181.66 307.635H218.378" stroke="white" stroke-opacity="0.5" stroke-width="0.458974"/>
<path d="M208.431 310.86L208.431 203.524" stroke="white" stroke-opacity="0.5" stroke-width="0.458974"/>
<path d="M278.04 98.0498L216.078 220.444" stroke="white" stroke-opacity="0.5" stroke-width="0.458974"/>
<path d="M213.783 215.843L274.216 98.0382" stroke="white" stroke-opacity="0.5" stroke-width="0.458974"/>
<path d="M271.149 98.045L211.482 211.26" stroke="white" stroke-opacity="0.5" stroke-width="0.458974"/>
<path d="M266.571 98.0338L210.729 207.424" stroke="white" stroke-opacity="0.5" stroke-width="0.458974"/>
<path d="M261.971 98.0391L208.423 204.369" stroke="white" stroke-opacity="0.5" stroke-width="0.458974"/>
<path d="M255.093 98.7991L207.665 200.539" stroke="white" stroke-opacity="0.5" stroke-width="0.458974"/>
<path d="M249.744 100.336L206.14 197.486" stroke="white" stroke-opacity="0.5" stroke-width="0.458974"/>
<path d="M243.614 103.398L204.602 194.428" stroke="white" stroke-opacity="0.5" stroke-width="0.458974"/>
<path d="M239.027 106.459L203.075 191.37" stroke="white" stroke-opacity="0.5" stroke-width="0.458974"/>
<path d="M233.68 111.807L201.552 186.773" stroke="white" stroke-opacity="0.5" stroke-width="0.458974"/>
<path d="M199.256 310.84L199.256 186.237" stroke="white" stroke-opacity="0.5" stroke-width="0.458974"/>
<path d="M190.069 310.86L190.069 205.136" stroke="white" stroke-opacity="0.5" stroke-width="0.458974"/>
<path d="M181.66 304.574H218.378" stroke="white" stroke-opacity="0.5" stroke-width="0.458974"/>
<path d="M181.66 301.522H218.378" stroke="white" stroke-opacity="0.5" stroke-width="0.458974"/>
<path d="M181.66 298.45H218.378" stroke="white" stroke-opacity="0.5" stroke-width="0.458974"/>
<path d="M181.66 295.399H218.378" stroke="white" stroke-opacity="0.5" stroke-width="0.458974"/>
<path d="M181.66 292.337H218.378" stroke="white" stroke-opacity="0.5" stroke-width="0.458974"/>
<path d="M181.66 289.275H218.378" stroke="white" stroke-opacity="0.5" stroke-width="0.458974"/>
<path d="M181.66 286.213H218.378" stroke="white" stroke-opacity="0.5" stroke-width="0.458974"/>
<path d="M181.66 283.162H218.378" stroke="white" stroke-opacity="0.5" stroke-width="0.458974"/>
<path d="M181.66 280.1H218.378" stroke="white" stroke-opacity="0.5" stroke-width="0.458974"/>
<path d="M181.66 277.038H218.378" stroke="white" stroke-opacity="0.5" stroke-width="0.458974"/>
<path d="M181.66 273.987H218.378" stroke="white" stroke-opacity="0.5" stroke-width="0.458974"/>
<path d="M181.66 270.925H218.378" stroke="white" stroke-opacity="0.5" stroke-width="0.458974"/>
<path d="M181.66 267.863H218.378" stroke="white" stroke-opacity="0.5" stroke-width="0.458974"/>
<path d="M181.66 264.812H218.378" stroke="white" stroke-opacity="0.5" stroke-width="0.458974"/>
<path d="M181.66 261.74H218.378" stroke="white" stroke-opacity="0.5" stroke-width="0.458974"/>
<path d="M181.66 258.689H218.378" stroke="white" stroke-opacity="0.5" stroke-width="0.458974"/>
<path d="M181.66 255.627H218.378" stroke="white" stroke-opacity="0.5" stroke-width="0.458974"/>
<path d="M181.66 252.565H218.378" stroke="white" stroke-opacity="0.5" stroke-width="0.458974"/>
<path d="M181.66 249.503H218.378" stroke="white" stroke-opacity="0.5" stroke-width="0.458974"/>
<path d="M181.66 246.442H218.378" stroke="white" stroke-opacity="0.5" stroke-width="0.458974"/>
<path d="M181.66 243.39H218.378" stroke="white" stroke-opacity="0.5" stroke-width="0.458974"/>
<path d="M181.66 240.328H218.378" stroke="white" stroke-opacity="0.5" stroke-width="0.458974"/>
<path d="M181.66 237.267H218.378" stroke="white" stroke-opacity="0.5" stroke-width="0.458974"/>
<path d="M181.66 234.205H218.378" stroke="white" stroke-opacity="0.5" stroke-width="0.458974"/>
<path d="M181.66 231.143H218.378" stroke="white" stroke-opacity="0.5" stroke-width="0.458974"/>
<path d="M181.66 228.081H218.378" stroke="white" stroke-opacity="0.5" stroke-width="0.458974"/>
<path d="M181.66 225.02H218.378" stroke="white" stroke-opacity="0.5" stroke-width="0.458974"/>
<path d="M183.182 221.958H216.84" stroke="white" stroke-opacity="0.5" stroke-width="0.458974"/>
<path d="M184.59 218.896H215.308" stroke="white" stroke-opacity="0.5" stroke-width="0.458974"/>
<path d="M185.783 215.834H213.795" stroke="white" stroke-opacity="0.5" stroke-width="0.458974"/>
<path d="M187.121 212.783H212.257" stroke="white" stroke-opacity="0.5" stroke-width="0.458974"/>
<path d="M188.55 209.721H210.735" stroke="white" stroke-opacity="0.5" stroke-width="0.458974"/>
<path d="M190.069 206.66H209.959" stroke="white" stroke-opacity="0.5" stroke-width="0.458974"/>
<path d="M190.847 203.608L209.206 203.608" stroke="white" stroke-opacity="0.5" stroke-width="0.458974"/>
<path d="M192.366 200.536L206.901 200.536" stroke="white" stroke-opacity="0.5" stroke-width="0.458974"/>
<path d="M193.897 197.484H206.137" stroke="white" stroke-opacity="0.5" stroke-width="0.458974"/>
<path d="M195.418 194.423H204.598" stroke="white" stroke-opacity="0.5" stroke-width="0.458974"/>
<path d="M196.959 191.371H203.079" stroke="white" stroke-opacity="0.5" stroke-width="0.458974"/>
<path d="M201.541 180.655L232.139 199.014" stroke="white" stroke-opacity="0.5" stroke-width="0.458974"/>
<path d="M203.072 176.073L234.435 194.432" stroke="white" stroke-opacity="0.5" stroke-width="0.458974"/>
<path d="M205.368 172.999L235.966 190.593" stroke="white" stroke-opacity="0.5" stroke-width="0.458974"/>
<path d="M206.899 167.643L238.263 186.767" stroke="white" stroke-opacity="0.5" stroke-width="0.458974"/>
<path d="M209.186 163.826L240.549 182.185" stroke="white" stroke-opacity="0.5" stroke-width="0.458974"/>
<path d="M210.726 160.002L242.089 177.596" stroke="white" stroke-opacity="0.5" stroke-width="0.458974"/>
<path d="M212.257 156.174L245.151 174.533" stroke="white" stroke-opacity="0.5" stroke-width="0.458974"/>
<path d="M214.551 151.596L246.68 169.955" stroke="white" stroke-opacity="0.5" stroke-width="0.458974"/>
<path d="M216.072 147.004L248.2 165.363" stroke="white" stroke-opacity="0.5" stroke-width="0.458974"/>
<path d="M218.37 142.414L249.733 160.773" stroke="white" stroke-opacity="0.5" stroke-width="0.458974"/>
<path d="M219.908 137.812L252.802 157.701" stroke="white" stroke-opacity="0.5" stroke-width="0.458974"/>
<path d="M221.433 133.229L254.027 153.588" stroke="white" stroke-opacity="0.5" stroke-width="0.458974"/>
<path d="M222.962 129.396L257.385 150.05" stroke="white" stroke-opacity="0.5" stroke-width="0.458974"/>
<path d="M225.265 125.581L259.071 145.48" stroke="white" stroke-opacity="0.5" stroke-width="0.458974"/>
<path d="M226.787 121.757L260.689 140.883" stroke="white" stroke-opacity="0.5" stroke-width="0.458974"/>
<path d="M229.383 117.89L262.746 137.056" stroke="white" stroke-opacity="0.5" stroke-width="0.458974"/>
<path d="M231.384 114.869L266.572 131.698" stroke="white" stroke-opacity="0.5" stroke-width="0.458974"/>
<path d="M232.906 111.812L268.859 125.581" stroke="white" stroke-opacity="0.5" stroke-width="0.458974"/>
<path d="M235.965 109.51L271.153 122.515" stroke="white" stroke-opacity="0.5" stroke-width="0.458974"/>
<path d="M237.496 107.215L271.919 118.689" stroke="white" stroke-opacity="0.5" stroke-width="0.458974"/>
<path d="M240.559 105.683L274.217 114.863" stroke="white" stroke-opacity="0.5" stroke-width="0.458974"/>
<path d="M242.864 103.397L276.522 111.047" stroke="white" stroke-opacity="0.5" stroke-width="0.458974"/>
<path d="M246.672 101.866L278.035 107.221" stroke="white" stroke-opacity="0.5" stroke-width="0.458974"/>
<path d="M249.732 100.336L280.331 104.161" stroke="white" stroke-opacity="0.5" stroke-width="0.458974"/>
<path d="M254.326 98.8049L281.101 101.1" stroke="white" stroke-opacity="0.5" stroke-width="0.458974"/>
<path d="M200.011 183.717L230.609 202.076" stroke="white" stroke-opacity="0.5" stroke-width="0.458974"/>
<path d="M203.072 190.595L228.317 205.895" stroke="white" stroke-opacity="0.5" stroke-width="0.458974"/>
<path d="M206.134 196.719L226.789 210.489" stroke="white" stroke-opacity="0.5" stroke-width="0.458974"/>
<path d="M208.431 202.842L224.495 213.552" stroke="white" stroke-opacity="0.5" stroke-width="0.458974"/>
<path d="M210.727 206.66L222.966 216.604" stroke="white" stroke-opacity="0.5" stroke-width="0.458974"/>
<path d="M211.492 210.497L221.437 219.677" stroke="white" stroke-opacity="0.5" stroke-width="0.458974"/>
<path d="M213.789 215.834L219.909 221.954" stroke="white" stroke-opacity="0.5" stroke-width="0.458974"/>
<path d="M250.501 67.4419L170.945 249.502" stroke="url(#paint1_linear_191_2)" stroke-width="0.917949"/>
<path d="M152.595 72.7898L229.09 251.025" stroke="url(#paint2_linear_191_2)" stroke-width="0.917949"/>
<path d="M218.37 225.02V348.944" stroke="url(#paint3_linear_191_2)" stroke-width="0.917949"/>
<path d="M181.66 225.02V348.944" stroke="url(#paint4_linear_191_2)" stroke-width="0.917949"/>
<path d="M292.573 78.1479L203.073 257.148" stroke="url(#paint5_linear_191_2)" stroke-width="0.917949" stroke-dasharray="1.84 1.84"/>
<path d="M255.867 311.461L138.827 309.931" stroke="url(#paint6_linear_191_2)" stroke-width="0.917949" stroke-dasharray="1.84 1.84"/>
<path d="M108.22 81.2097L197.72 257.15" stroke="url(#paint7_linear_191_2)" stroke-width="0.917949" stroke-dasharray="1.84 1.84"/>
<path d="M258.912 98.0393H282.626L218.37 225.787V310.697H181.652V225.787L227.549 120.223C231.374 110.279 246.673 98.0393 258.912 98.0393Z" stroke="white" stroke-width="1.52991"/>
<path d="M141.108 98.0393H117.395L181.651 225.787V310.697H218.369V225.787L172.471 120.223C168.647 110.279 153.348 98.0393 141.108 98.0393Z" fill="url(#paint8_linear_191_2)" stroke="white" stroke-width="1.52991"/>
<defs>
<linearGradient id="paint0_linear_191_2" x1="20.5078" y1="16.6667" x2="373" y2="355" gradientUnits="userSpaceOnUse">
<stop stop-color="#467FFF"/>
<stop offset="0.471154" stop-color="#5F7CF8"/>
<stop offset="1" stop-color="#1847BB"/>
</linearGradient>
<linearGradient id="paint1_linear_191_2" x1="251.266" y1="60.5573" x2="163.296" y2="265.566" gradientUnits="userSpaceOnUse">
<stop stop-color="white" stop-opacity="0"/>
<stop offset="0.0673159" stop-color="white" stop-opacity="0.8"/>
<stop offset="0.931947" stop-color="white" stop-opacity="0.8"/>
<stop offset="1" stop-color="white" stop-opacity="0"/>
</linearGradient>
<linearGradient id="paint2_linear_191_2" x1="251.274" y1="60.5505" x2="163.304" y2="265.559" gradientUnits="userSpaceOnUse">
<stop stop-color="white" stop-opacity="0"/>
<stop offset="0.0673159" stop-color="white" stop-opacity="0.8"/>
<stop offset="0.931947" stop-color="white" stop-opacity="0.8"/>
<stop offset="1" stop-color="white" stop-opacity="0"/>
</linearGradient>
<linearGradient id="paint3_linear_191_2" x1="218.37" y1="209.72" x2="220.71" y2="342.8" gradientUnits="userSpaceOnUse">
<stop stop-color="white" stop-opacity="0"/>
<stop offset="0.0673159" stop-color="white" stop-opacity="0.8"/>
<stop offset="0.931947" stop-color="white" stop-opacity="0.8"/>
<stop offset="1" stop-color="white" stop-opacity="0"/>
</linearGradient>
<linearGradient id="paint4_linear_191_2" x1="181.66" y1="209.72" x2="184" y2="342.8" gradientUnits="userSpaceOnUse">
<stop stop-color="white" stop-opacity="0"/>
<stop offset="0.0673159" stop-color="white" stop-opacity="0.8"/>
<stop offset="0.931947" stop-color="white" stop-opacity="0.8"/>
<stop offset="1" stop-color="white" stop-opacity="0"/>
</linearGradient>
<linearGradient id="paint5_linear_191_2" x1="292.573" y1="71.2633" x2="204.603" y2="276.272" gradientUnits="userSpaceOnUse">
<stop stop-color="white" stop-opacity="0"/>
<stop offset="0.0673159" stop-color="white" stop-opacity="0.8"/>
<stop offset="0.931947" stop-color="white" stop-opacity="0.8"/>
<stop offset="1" stop-color="white" stop-opacity="0"/>
</linearGradient>
<linearGradient id="paint6_linear_191_2" x1="271.166" y1="311.461" x2="270.834" y2="317.431" gradientUnits="userSpaceOnUse">
<stop stop-color="white" stop-opacity="0"/>
<stop offset="0.0673159" stop-color="white" stop-opacity="0.8"/>
<stop offset="0.931947" stop-color="white" stop-opacity="0.8"/>
<stop offset="1" stop-color="white" stop-opacity="0"/>
</linearGradient>
<linearGradient id="paint7_linear_191_2" x1="292.574" y1="71.2653" x2="204.604" y2="276.274" gradientUnits="userSpaceOnUse">
<stop stop-color="white" stop-opacity="0"/>
<stop offset="0.0673159" stop-color="white" stop-opacity="0.8"/>
<stop offset="0.931947" stop-color="white" stop-opacity="0.8"/>
<stop offset="1" stop-color="white" stop-opacity="0"/>
</linearGradient>
<linearGradient id="paint8_linear_191_2" x1="203.07" y1="98.0393" x2="203.07" y2="308.403" gradientUnits="userSpaceOnUse">
<stop offset="0.262557" stop-color="#F5FFFF"/>
<stop offset="0.663897" stop-color="white" stop-opacity="0.5"/>
<stop offset="1" stop-color="#0083FF" stop-opacity="0"/>
</linearGradient>
</defs>
</svg>
